<svg id="Group_49902" data-name="Group 49902" xmlns="http://www.w3.org/2000/svg" xmlns:xlink="http://www.w3.org/1999/xlink" width="75.562" height="45.221" viewBox="0 0 75.562 45.221">
  <defs>
    <clipPath id="clip-path">
      <rect id="Rectangle_23024" data-name="Rectangle 23024" width="75.562" height="45.221" fill="none"/>
    </clipPath>
  </defs>
  <g id="Group_49901" data-name="Group 49901" clip-path="url(#clip-path)">
    <path id="Path_104165" data-name="Path 104165" d="M227.231,10.72,226.924,12q-1.47,6.146-2.94,12.291-.319,1.333-.642,2.666c-.029.12-.075.237-.111.355a1.045,1.045,0,0,1-1.08.793q-1.336.015-2.673,0a1.026,1.026,0,0,1-1.022-.688c-.185-.492-.348-.993-.5-1.5q-2.808-9.224-5.608-18.45c-.084-.275-.15-.556-.213-.837a1.05,1.05,0,0,1-.013-.326.521.521,0,0,1,.586-.49c.508-.007,1.016-.005,1.523,0,.433,0,.866.008,1.3.024a.927.927,0,0,1,.906.636c.173.491.323.991.452,1.5q1.942,7.625,3.874,15.253a2.534,2.534,0,0,0,.138.428c.069-.289.139-.577.207-.866q1.853-7.863,3.706-15.725c.036-.154.091-.3.137-.456a1.035,1.035,0,0,1,.995-.762c.223-.02.447-.027.671-.026.677,0,1.354,0,2.03.023a1,1,0,0,1,1,.75c.138.456.248.92.358,1.384q1.46,6.179,2.916,12.358l.818,3.467c0,.014.008.028.023.076.027-.079.049-.129.063-.182q1.336-5.173,2.67-10.346.806-3.124,1.616-6.247a5.44,5.44,0,0,1,.218-.6,1.016,1.016,0,0,1,.932-.656c.168-.016.337-.025.506-.026q1.038,0,2.076,0a1.633,1.633,0,0,1,.282.023.486.486,0,0,1,.427.467,2.47,2.47,0,0,1-.148.966q-1.36,4.36-2.722,8.72-1.716,5.5-3.431,11c-.034.109-.079.214-.116.322a1.157,1.157,0,0,1-1.184.825c-.841.013-1.683.014-2.523,0a1.086,1.086,0,0,1-1.189-.936c-.207-.772-.383-1.553-.57-2.331q-1.456-6.057-2.911-12.114-.23-.956-.462-1.912c-.01-.042-.024-.083-.036-.125h-.025" transform="translate(-188.46 -5.167)" fill="#fff"/>
    <path id="Path_104166" data-name="Path 104166" d="M37.65,281.838c-.766,0-1.533.019-2.3-.005-.734-.023-1.468-.082-2.2-.141-.757-.061-1.514-.123-2.267-.218-.93-.117-1.858-.259-2.784-.406-1.609-.257-3.2-.609-4.776-1.021a55.075,55.075,0,0,1-16.968-7.69,54.148,54.148,0,0,1-5.873-4.593,2.461,2.461,0,0,1-.349-.364.652.652,0,0,1-.035-.742.62.62,0,0,1,.717-.226,2.628,2.628,0,0,1,.525.242,71.9,71.9,0,0,0,10.782,5.049,72.4,72.4,0,0,0,8.477,2.6q2.1.5,4.224.906c1.135.219,2.28.383,3.424.551.859.126,1.722.227,2.585.323.6.067,1.206.112,1.81.157.857.063,1.714.118,2.571.174.253.016.507.029.76.031,1.383.012,2.767.031,4.15.024.73,0,1.461-.043,2.19-.085.828-.048,1.656-.1,2.481-.181,1.106-.11,2.21-.24,3.313-.38,2.05-.26,4.08-.633,6.1-1.076a73.936,73.936,0,0,0,10.381-3.079c.883-.335,1.754-.7,2.633-1.049a1.234,1.234,0,0,1,1.379.2.94.94,0,0,1,.038,1.386,5.724,5.724,0,0,1-.865.7,43.527,43.527,0,0,1-8.814,4.763,54.237,54.237,0,0,1-8.872,2.766c-1.429.314-2.874.565-4.317.81-.865.147-1.74.238-2.613.333-.646.07-1.3.121-1.944.155-1.186.063-2.373.107-3.56.159,0-.023,0-.047,0-.07" transform="translate(0 -236.687)" fill="#ff9a00"/>
    <path id="Path_104167" data-name="Path 104167" d="M41.7,10.878a.65.65,0,0,0,.011-.086c-.019-.97-.02-1.94-.065-2.909a5.462,5.462,0,0,0-.4-1.737A3.181,3.181,0,0,0,39.1,4.209a9.169,9.169,0,0,0-3.07-.341A15.7,15.7,0,0,0,30.8,5.12a7.723,7.723,0,0,1-.9.3c-.387.1-.666-.076-.681-.471-.025-.665-.005-1.332.013-2a.768.768,0,0,1,.4-.647,9.423,9.423,0,0,1,1.052-.557A16.487,16.487,0,0,1,38.67.489a10.129,10.129,0,0,1,3.345.813,5.992,5.992,0,0,1,3.3,3.779A9.113,9.113,0,0,1,45.8,7.834c.027,2.383.024,4.767.032,7.15,0,.542-.022,1.086.006,1.627.03.587.083,1.175.167,1.757a7.872,7.872,0,0,0,.861,2.292,4.487,4.487,0,0,1,.23.5.715.715,0,0,1-.152.738,1.678,1.678,0,0,1-.3.284c-.53.361-1.062.72-1.6,1.068a.98.98,0,0,1-1.3-.094,1.485,1.485,0,0,1-.128-.125A8.984,8.984,0,0,1,42.162,20.8c-.056-.114-.113-.228-.179-.362l-.141.159a9.407,9.407,0,0,1-4.339,2.89,9.941,9.941,0,0,1-3.434.406A7.256,7.256,0,0,1,31,23.125a5.782,5.782,0,0,1-3.052-3.871,7.485,7.485,0,0,1,.316-4.854,6.537,6.537,0,0,1,3.033-3.2,9.01,9.01,0,0,1,3.309-.986,15.43,15.43,0,0,1,4.136.113c.947.145,1.886.346,2.829.523l.133.024m-4.647,2.234a7.741,7.741,0,0,0-2.583.382,3.316,3.316,0,0,0-2.187,2.177,5.015,5.015,0,0,0-.132,2.2,3.028,3.028,0,0,0,2.625,2.679,6.443,6.443,0,0,0,2.094-.035,6.731,6.731,0,0,0,2.476-.86,4.607,4.607,0,0,0,2.319-3.5,22.334,22.334,0,0,0,.1-2.353c0-.114-.065-.126-.146-.145a20.534,20.534,0,0,0-4.566-.549" transform="translate(-24.598 -0.373)" fill="#fff"/>
    <path id="Path_104168" data-name="Path 104168" d="M509.041,23.638a17.118,17.118,0,0,1-6.26-1.167,6.305,6.305,0,0,1-.895-.472,1.255,1.255,0,0,1-.643-1.1c-.012-.537-.017-1.075.008-1.611a.541.541,0,0,1,.739-.557,7.5,7.5,0,0,1,1.077.384,14.122,14.122,0,0,0,3.869,1,13.43,13.43,0,0,0,2.8.051,5.545,5.545,0,0,0,2.71-.866,2.787,2.787,0,0,0,.992-3.324,2.556,2.556,0,0,0-1.133-1.246,10.27,10.27,0,0,0-2.158-.892c-1.327-.418-2.66-.815-3.977-1.261a7.234,7.234,0,0,1-2.838-1.684,5.97,5.97,0,0,1-1.816-3.746,5.644,5.644,0,0,1,.994-3.916,7.088,7.088,0,0,1,2.7-2.269,9.45,9.45,0,0,1,3.466-.921,14.391,14.391,0,0,1,4.153.289,10.742,10.742,0,0,1,2.457.762,4.343,4.343,0,0,1,.777.494,1.225,1.225,0,0,1,.47,1.005c0,.448,0,.9,0,1.343a.993.993,0,0,1,0,.1c-.055.517-.345.729-.843.576-.34-.1-.667-.256-1-.392a11.3,11.3,0,0,0-3.665-.814,9.9,9.9,0,0,0-2.806.161,5.782,5.782,0,0,0-1.125.381,2.335,2.335,0,0,0-1.416,1.912,2.456,2.456,0,0,0,1.034,2.5,6.567,6.567,0,0,0,.834.491,18.511,18.511,0,0,0,2.685.981c1.129.367,2.264.718,3.382,1.114a7.084,7.084,0,0,1,2.231,1.271,5.342,5.342,0,0,1,1.885,3.469,6.286,6.286,0,0,1-.622,3.839,6.818,6.818,0,0,1-3.3,3.078,11,11,0,0,1-3.72.961c-.411.034-.824.049-1.05.062" transform="translate(-445.335 0)" fill="#fff"/>
    <path id="Path_104169" data-name="Path 104169" d="M557.736,255.853c-.8.033-1.471.041-2.135.091-.91.069-1.818.168-2.727.259-.43.043-.857.1-1.287.147a.524.524,0,0,1-.578-.217.514.514,0,0,1,.138-.6,1.936,1.936,0,0,1,.367-.325,12.135,12.135,0,0,1,4.091-1.75,18.636,18.636,0,0,1,4.88-.473,12.358,12.358,0,0,1,3.434.529c.132.044.258.1.389.152a1.1,1.1,0,0,1,.729,1.029,9.853,9.853,0,0,1-.136,2.67,18.419,18.419,0,0,1-1.479,4.723,13.222,13.222,0,0,1-2.944,4.184,5.325,5.325,0,0,1-.658.51.7.7,0,0,1-.34.088.378.378,0,0,1-.407-.5,3.163,3.163,0,0,1,.152-.451c.642-1.6,1.263-3.211,1.758-4.865a15.514,15.514,0,0,0,.575-2.555,4.119,4.119,0,0,0-.014-1.306,1.189,1.189,0,0,0-.748-.9,4.2,4.2,0,0,0-1.31-.326c-.628-.057-1.258-.086-1.752-.119" transform="translate(-489.515 -224.76)" fill="#ff9a00"/>
  </g>
</svg>
