<svg id="Group_49904" data-name="Group 49904" xmlns="http://www.w3.org/2000/svg" xmlns:xlink="http://www.w3.org/1999/xlink" width="75.562" height="49.581" viewBox="0 0 75.562 49.581">
  <defs>
    <clipPath id="clip-path">
      <rect id="Rectangle_23025" data-name="Rectangle 23025" width="75.562" height="49.581" fill="#053d9f"/>
    </clipPath>
  </defs>
  <g id="Group_49903" data-name="Group 49903" clip-path="url(#clip-path)">
    <path id="Path_104170" data-name="Path 104170" d="M0,23.169a47.6,47.6,0,0,1,1.04-4.648,19.967,19.967,0,0,1,38.839,4.262,49.25,49.25,0,0,0,.6,5.7A15.551,15.551,0,1,0,61.408,10.36c-.267-.11-.544-.194-1.028-.364.673.978,1.256,1.775,1.786,2.605a2.188,2.188,0,0,1-1.445,3.416,2.043,2.043,0,0,1-2.136-.86c-1.639-2.3-3.269-4.614-4.861-6.949a2.119,2.119,0,0,1,.522-2.959Q57.691,2.777,61.194.385A2.157,2.157,0,0,1,64.2.943a2.171,2.171,0,0,1-.463,3.026c-.729.567-1.5,1.079-2.126,1.524a60.3,60.3,0,0,1,5.325,2.9A19.973,19.973,0,1,1,35.765,27.542c-.211-1.5-.157-3.045-.328-4.557A15.562,15.562,0,1,0,14.558,39.377c.134.05.271.088.635.205a27.3,27.3,0,0,1-1.654-2.417,3.507,3.507,0,0,1-.476-1.783,1.949,1.949,0,0,1,1.552-1.763,1.968,1.968,0,0,1,2.254.691q2.583,3.546,5.037,7.185a2.086,2.086,0,0,1-.585,2.834q-3.446,2.47-6.947,4.864a2.2,2.2,0,0,1-2.5-3.619c.719-.542,1.469-1.043,2.205-1.563-1.3-.6-2.592-1.076-3.766-1.756A19.706,19.706,0,0,1,.127,26.973,2.4,2.4,0,0,0,0,26.563V23.169" transform="translate(0 0)" fill="#053d9f"/>
    <path id="Path_104171" data-name="Path 104171" d="M220.472,101.481a4.784,4.784,0,1,1-4.809,4.757,4.768,4.768,0,0,1,4.809-4.757m2.562,4.789a2.549,2.549,0,0,0-2.565-2.575,2.57,2.57,0,1,0-.012,5.139,2.55,2.55,0,0,0,2.577-2.564" transform="translate(-173.142 -81.473)" fill="#053d9f"/>
    <path id="Path_104172" data-name="Path 104172" d="M45.983,101.384a3.8,3.8,0,0,1,4.12,2.157,5.612,5.612,0,0,1-.343,5.747,3.5,3.5,0,0,1-2.9,1.632c-.735.029-1.473.045-2.208.027a1.1,1.1,0,0,1-1.222-1.243q-.025-3.534-.009-7.068a1.106,1.106,0,0,1,1.212-1.25c.392-.017.785,0,1.353,0m-.309,2.249v5.057c.912.077,1.8.164,2.327-.737a3.523,3.523,0,0,0,.069-3.521c-.493-.972-1.435-.87-2.4-.8" transform="translate(-34.854 -81.376)" fill="#053d9f"/>
    <path id="Path_104173" data-name="Path 104173" d="M314.4,104.437c.445.189.889.379,1.334.565.429.18.873.331,1.287.54a2.844,2.844,0,0,1,1.726,2.829,3.067,3.067,0,0,1-2.486,2.588,4.435,4.435,0,0,1-4.013-1.166,1.129,1.129,0,0,1-.166-1.69c.457-.476.982-.4,1.646.019a4.435,4.435,0,0,0,1.725.666c.361.048.776-.3,1.167-.475q0-.147-.006-.295a5.658,5.658,0,0,0-.844-.6c-.642-.3-1.3-.563-1.968-.819a2.38,2.38,0,0,1-1.605-2.1,2.537,2.537,0,0,1,1.135-2.412,4.036,4.036,0,0,1,4.726.346,1.146,1.146,0,0,1,.176,1.639c-.409.467-.948.425-1.593.1a4.813,4.813,0,0,0-1.643-.4c-.205-.022-.442.255-.664.4Z" transform="translate(-250.301 -81.47)" fill="#053d9f"/>
    <path id="Path_104174" data-name="Path 104174" d="M90.02,103.646v1.478c.559,0,1.09-.014,1.621,0a1.126,1.126,0,0,1,1.238,1.08,1.14,1.14,0,0,1-1.212,1.117c-.531.028-1.064.006-1.632.006v1.484c.65,0,1.258-.016,1.865,0,.737.025,1.16.411,1.186,1.039a1.068,1.068,0,0,1-1.154,1.151c-.981.036-1.965.036-2.947,0a1.088,1.088,0,0,1-1.2-1.2q-.034-3.573,0-7.147c.007-.826.416-1.2,1.246-1.221q1.436-.029,2.874,0a1.061,1.061,0,0,1,1.18,1.043c.025.662-.4,1.092-1.16,1.151-.318.025-.638.01-.958.012-.291,0-.582,0-.948,0" transform="translate(-70.465 -81.427)" fill="#053d9f"/>
    <path id="Path_104175" data-name="Path 104175" d="M273.976,107.86c0,.706.016,1.341,0,1.976a1.1,1.1,0,1,1-2.195.044c-.022-2.453-.026-4.907,0-7.361a1.045,1.045,0,0,1,1.148-1.085c.736-.014,1.474-.033,2.208.011a3.165,3.165,0,0,1,.312,6.292c-.454.077-.921.079-1.473.123m.051-4.166v1.861c.676.051,1.357.195,1.744-.475a1.119,1.119,0,0,0,0-.95c-.4-.679-1.08-.493-1.743-.436" transform="translate(-218.18 -81.422)" fill="#053d9f"/>
    <path id="Path_104176" data-name="Path 104176" d="M126.254,106.577c.464-1.387.9-2.783,1.41-4.155a1.5,1.5,0,0,1,.714-.844,1.184,1.184,0,0,1,1.061.185,1.425,1.425,0,0,1,.333,1.161c-.742,2.412-1.561,4.8-2.363,7.194a1.272,1.272,0,0,1-2.427.005c-.826-2.359-1.657-4.717-2.466-7.082a1.112,1.112,0,1,1,2.1-.688c.506,1.4.988,2.817,1.479,4.226l.164,0" transform="translate(-98.288 -81.447)" fill="#053d9f"/>
  </g>
</svg>
