<svg id="Group_49916" data-name="Group 49916" xmlns="http://www.w3.org/2000/svg" xmlns:xlink="http://www.w3.org/1999/xlink" width="11.236" height="11.238" viewBox="0 0 11.236 11.238">
  <defs>
    <clipPath id="clip-path">
      <rect id="Rectangle_23037" data-name="Rectangle 23037" width="11.236" height="11.238" transform="translate(0 0)" fill="#94059f"/>
    </clipPath>
  </defs>
  <g id="Group_49915" data-name="Group 49915" transform="translate(0 0)" clip-path="url(#clip-path)">
    <path id="Path_104178" data-name="Path 104178" d="M4.77,28.35c-.971,0-1.942.006-2.913,0A1.688,1.688,0,0,1,0,26.478Q0,23.588,0,20.7A1.705,1.705,0,0,1,1.9,18.813q1.479,0,2.958,0c.483,0,.758.216.754.572s-.276.561-.765.562c-.986,0-1.972,0-2.958,0-.585,0-.758.168-.759.734q0,2.913,0,5.825c0,.531.193.717.736.718q2.913,0,5.825,0c.539,0,.713-.182.715-.734q.006-1.524,0-3.047c0-.353.118-.622.493-.693a.552.552,0,0,1,.637.585c.013,1.15.04,2.3-.012,3.45a1.635,1.635,0,0,1-1.749,1.558c-1,.014-2,0-3,0" transform="translate(0 -17.115)" fill="#94059f"/>
    <path id="Path_104179" data-name="Path 104179" d="M48.842,1.144c-.687,0-1.268,0-1.849,0-.451,0-.715-.219-.692-.575.027-.418.3-.543.68-.545C48.042.016,49.1,0,50.163,0A.607.607,0,0,1,50.8.661Q50.789,2.23,50.772,3.8c-.006.464-.213.706-.572.7s-.544-.254-.546-.723c0-.575,0-1.151,0-1.813-.175.163-.284.257-.385.358Q47,4.585,44.733,6.853c-.085.085-.168.171-.255.253a.531.531,0,0,1-.828.022.523.523,0,0,1,.026-.8c.081-.088.168-.17.252-.255l4.534-4.534c.1-.1.2-.212.379-.4" transform="translate(-39.559 0)" fill="#94059f"/>
  </g>
</svg>
