<svg id="Group_49906" data-name="Group 49906" xmlns="http://www.w3.org/2000/svg" xmlns:xlink="http://www.w3.org/1999/xlink" width="75.562" height="54.542" viewBox="0 0 75.562 54.542">
  <defs>
    <clipPath id="clip-path">
      <rect id="Rectangle_23035" data-name="Rectangle 23035" width="75.562" height="54.542" fill="none"/>
    </clipPath>
  </defs>
  <g id="Group_49905" data-name="Group 49905" clip-path="url(#clip-path)">
    <path id="Path_104177" data-name="Path 104177" d="M26.713,144.686H23.688c-.026-.05-.075-.034-.114-.036-.829-.032-1.657-.09-2.482-.18A27.388,27.388,0,0,1,14.9,143.1a20.862,20.862,0,0,1-8.009-5.017,22.376,22.376,0,0,1-4.674-6.995,27.413,27.413,0,0,1-2.032-7.82,24.92,24.92,0,0,1-.068-5.335,6.246,6.246,0,0,1,.232-1.2.853.853,0,0,1,.3-.021q25.631-.006,51.262-.015a11.746,11.746,0,0,0,4.905-1.04,2.106,2.106,0,0,0,.512-.286c-.021-.037-.035-.064-.05-.09a9.487,9.487,0,0,1-1.347-3.736,13.587,13.587,0,0,1,.075-4.059,12.56,12.56,0,0,1,2.015-5.256c.3-.429.582-.866.871-1.3a.367.367,0,0,1,.066.025,19.347,19.347,0,0,1,3.607,3.054,11.046,11.046,0,0,1,2.623,4.945c.068.311.117.625.177.945a1.2,1.2,0,0,0,.131-.008,15.957,15.957,0,0,1,5.938.082,7.441,7.441,0,0,1,2.713,1.059c.459.306.943.575,1.416.861v.074c-.063.02-.065.084-.089.131-.379.758-.681,1.553-1.087,2.3a9.3,9.3,0,0,1-4.98,4.411,12.755,12.755,0,0,1-4.129.776c-.49.017-.982,0-1.481,0-.043.1-.082.189-.119.279a42.365,42.365,0,0,1-5.389,9.6,36.517,36.517,0,0,1-7.182,7.215,38.6,38.6,0,0,1-14.841,6.783,48.71,48.71,0,0,1-9.035,1.172,1.3,1.3,0,0,0-.518.051" transform="translate(0 -90.144)" fill="#2396ec"/>
    <rect id="Rectangle_23026" data-name="Rectangle 23026" width="7.776" height="7.357" transform="translate(5.881 17.713)" fill="#2396ec"/>
    <rect id="Rectangle_23027" data-name="Rectangle 23027" width="7.765" height="7.355" transform="translate(42.758 17.714)" fill="#2396ec"/>
    <rect id="Rectangle_23028" data-name="Rectangle 23028" width="7.771" height="7.355" transform="translate(33.538 17.717)" fill="#2396ec"/>
    <rect id="Rectangle_23029" data-name="Rectangle 23029" width="7.765" height="7.361" transform="translate(33.537)" fill="#2396ec"/>
    <rect id="Rectangle_23030" data-name="Rectangle 23030" width="7.775" height="7.352" transform="translate(15.094 8.863)" fill="#2396ec"/>
    <rect id="Rectangle_23031" data-name="Rectangle 23031" width="7.767" height="7.358" transform="translate(24.318 8.856)" fill="#2396ec"/>
    <rect id="Rectangle_23032" data-name="Rectangle 23032" width="7.768" height="7.355" transform="translate(33.537 8.856)" fill="#2396ec"/>
    <rect id="Rectangle_23033" data-name="Rectangle 23033" width="7.773" height="7.361" transform="translate(15.099 17.713)" fill="#2396ec"/>
    <rect id="Rectangle_23034" data-name="Rectangle 23034" width="7.767" height="7.352" transform="translate(24.317 17.715)" fill="#2396ec"/>
  </g>
</svg>
